#!OML:ASF H:\Dans Jumps\Project 1\Capture day 1\Session 1\subject.ASF
:FULLY-SPECIFIED
:DEGREES
442
root 0.385546 17.7196 -2.50021 6.4736 -1.37841 -1.09439
lowerback -0.572469 -0.118534 -0.355533
upperback 4.0802 -0.196287 1.2277
thorax 4.53113 -0.13703 1.45754
lowerneck -12.1831 0.493204 -2.04244
upperneck 36.3609 0.866202 1.16871
head 14.5398 0.24263 0.978236
rclavicle -9.44227e-016 1.11319e-014
rhumerus -21.8194 -11.9173 -83.3545
rradius 24.2235
rwrist 31.7189
rhand -18.4791 -25.9306
rfingers 7.12502
rthumb 7.80791 -55.7664
lclavicle -9.44227e-016 1.11319e-014
lhumerus -19.2743 -2.04899 88.4719
lradius 17.8452
lwrist 4.0177
lhand -26.139 -4.45067
lfingers 7.12502
lthumb 0.411464 25.5287
rfemur -15.9856 -0.316069 18.5487
rtibia 23.8527
rfoot -12.9242 0.903962
rtoes 13.8569
lfemur -13.8525 6.67969 -17.658
ltibia 20.5372
lfoot -9.49451 6.48312
ltoes 1.9595
443
root 0.385432 17.72 -2.50284 6.47187 -1.36263 -1.09971
lowerback -0.579902 -0.113718 -0.34262
upperback 4.07598 -0.190377 1.23178
thorax 4.53075 -0.133666 1.45478
lowerneck -12.164 0.490335 -2.04396
upperneck 36.3686 0.860467 1.17358
head 14.5391 0.240725 0.979613
rclavicle -5.96354e-016 4.96962e-015
rhumerus -21.8389 -11.9886 -83.3288
rradius 24.204
rwrist 31.7582
rhand -18.4412 -25.9559
rfingers 7.12502
rthumb 7.8445 -55.7904
lclavicle -5.96354e-016 4.96962e-015
lhumerus -19.3087 -2.00632 88.4676
lradius 17.8381
lwrist 3.98738
lhand -26.1419 -4.46242
lfingers 7.12502
lthumb 0.408699 25.5169
rfemur -15.9803 -0.329733 18.5548
rtibia 23.8336
rfoot -12.9138 0.907954
rtoes 13.8798
lfemur -13.8625 6.67776 -17.6521
ltibia 20.5365
lfoot -9.48671 6.46924
ltoes 1.96032
444
root 0.385223 17.7203 -2.50548 6.47191 -1.34729 -1.1075
lowerback -0.587733 -0.108858 -0.32862
upperback 4.07064 -0.184475 1.23694
thorax 4.52942 -0.130279 1.45251
lowerneck -12.1452 0.487357 -2.04833
upperneck 36.3767 0.854379 1.18118
head 14.5386 0.238638 0.982578
rclavicle -5.1684e-015 2.38542e-015
rhumerus -21.8568 -12.054 -83.3055
rradius 24.1842
rwrist 31.7908
rhand -18.4074 -25.9827
rfingers 7.12502
rthumb 7.87712 -55.8159
lclavicle -5.1684e-015 2.38542e-015
lhumerus -19.3444 -1.98574 88.4671
lradius 17.8365
lwrist 3.9842
lhand -26.1468 -4.49139
lfingers 7.12502
lthumb 0.403949 25.488
rfemur -15.9762 -0.341832 18.5636
rtibia 23.813
rfoot -12.9033 0.912105
rtoes 13.9037
lfemur -13.8752 6.67608 -17.6433
ltibia 20.5371
lfoot -9.47982 6.4549
ltoes 1.96489
445
root 0.384933 17.7206 -2.50807 6.47279 -1.33247 -1.11683
lowerback -0.59485 -0.103273 -0.312771
upperback 4.06371 -0.177627 1.24167
thorax 4.526 -0.126328 1.44879
lowerneck -12.1288 0.483788 -2.05045
upperneck 36.3892 0.847173 1.18791
head 14.5409 0.23622 0.984686
rclavicle -1.98785e-016 -9.93923e-016
rhumerus -21.8765 -12.1118 -83.2862
rradius 24.1666
rwrist 31.8081
rhand -18.4174 -26.0008
rfingers 7.12502
rthumb 7.86748 -55.8344
lclavicle -1.98785e-016 -9.93923e-016
lhumerus -19.3807 -1.98759 88.4686
lradius 17.8377
lwrist 4.0036
lhand -26.1544 -4.53123
lfingers 7.12502
lthumb 0.396627 25.4481
rfemur -15.9734 -0.35273 18.5743
rtibia 23.7933
rfoot -12.8937 0.916281
rtoes 13.927
lfemur -13.8881 6.67504 -17.6325
ltibia 20.5368
lfoot -9.47303 6.44004
ltoes 1.97113
